<?xml version="1.0" encoding="utf-8"?>
<!-- Generator: Adobe Illustrator 23.0.2, SVG Export Plug-In . SVG Version: 6.00 Build 0)  -->
<svg version="1.1" id="Layer_1" xmlns="http://www.w3.org/2000/svg" xmlns:xlink="http://www.w3.org/1999/xlink" x="0px" y="0px"
	 viewBox="0 0 1500 1500" style="enable-background:new 0 0 1500 1500;" xml:space="preserve">
<style type="text/css">
	.st0{fill:#DF7F15;}
	.st1{fill:#F19D15;}
	.st2{fill:none;}
</style>
<path class="st0" d="M606.33,509.5v920.43c-100.21-35.42-179.64-114.84-215.06-215.06c-13-36.78-20.07-76.35-20.07-117.56V509.5
	H606.33z"/>
<rect x="193.18" y="744.62" class="st1" width="178.02" height="235.13"/>
<rect x="371.21" y="51" class="st0" width="235.13" height="178.02"/>
<path class="st1" d="M1368.82,1214.87V1450H723.9c-41.21,0-80.78-7.07-117.56-20.07v-215.06H723.9
	c64.93,0,117.56-52.63,117.56-117.56c0-64.93-52.63-117.56-117.56-117.56H606.33V744.62H723.9c64.93,0,117.56-52.63,117.56-117.56
	c0-64.93-52.63-117.56-117.56-117.56H371.21V274.37H723.9c41.21,0,80.78,7.07,117.56,20.07
	c100.21,35.42,179.64,114.84,215.06,215.06c13,36.78,20.07,76.35,20.07,117.56c0,41.21-7.07,80.78-20.07,117.56
	c-15.48,43.8-39.37,83.64-69.75,117.56c30.38,33.93,54.26,73.76,69.75,117.56c13,36.78,20.07,76.35,20.07,117.56
	s-7.07,80.78-20.07,117.56H1368.82z"/>
<path class="st2" d="M841.46,627.06c0,64.93-52.63,117.56-117.56,117.56H606.33V509.5H723.9
	C788.83,509.5,841.46,562.13,841.46,627.06z"/>
<path class="st2" d="M841.46,1097.31c0,64.93-52.63,117.56-117.56,117.56H606.33V979.75H723.9
	C788.83,979.75,841.46,1032.38,841.46,1097.31z"/>
</svg>
