<?xml version="1.0" encoding="utf-8"?>
<!-- Generator: Adobe Illustrator 23.0.2, SVG Export Plug-In . SVG Version: 6.00 Build 0)  -->
<svg version="1.1" id="Layer_1" xmlns="http://www.w3.org/2000/svg" xmlns:xlink="http://www.w3.org/1999/xlink" x="0px" y="0px"
	 viewBox="0 0 406 306" style="enable-background:new 0 0 406 306;" xml:space="preserve">
<style type="text/css">
	.st0{opacity:0.18;enable-background:new    ;}
	.st1{fill:url(#SVGID_1_);}
	.st2{fill:url(#SVGID_2_);}
	.st3{fill:url(#SVGID_3_);}
	.st4{fill:url(#SVGID_4_);}
	.st5{fill:#FDB9A9;}
	.st6{fill:#E15167;}
	.st7{fill:#FFFFFF;}
	.st8{fill:#473F47;}
	.st9{opacity:0.1;fill:#020202;enable-background:new    ;}
	.st10{fill:#2F3554;}
	.st11{fill:#EFAC88;}
	.st12{fill:#8B2F0C;}
	.st13{fill:url(#SVGID_5_);}
	.st14{fill:#FDC099;}
	.st15{fill:#8A3C1F;}
	.st16{fill:#A67C52;}
	.st17{fill:#262836;}
	.st18{fill:url(#SVGID_6_);}
	.st19{fill:#DD8049;}
	.st20{fill:#DE9F93;}
</style>
<title>4</title>
<path class="st0" d="M247.3,13.4c17,8.8,31.1,22.2,44.3,36.2c17.9,19.1,40.7,32.4,61.5,47.9c23.6,17.5,46.3,40,51.6,68.9
	c2.3,12.3,1.2,25.1-1.6,37.3c-3.1,14.4-8.8,28.1-16.6,40.5c-16.2,25.1-42.2,43.1-70.7,52.1s-59.3,9.2-88.6,3.4
	c-15.3-3-30.4-7.7-46-8.1c-11.8-0.3-23.6,1.8-35.3,3.4c-36,4.8-74.3,3.6-106.1-13.8c-19.9-11-37.2-29.8-39.5-52.4
	c-2.6-25.9,14.1-48.3,31-66c13.8-14.4,25.9-30.3,35.9-47.6c4.4-7.6,9-13.5,11.7-22.1c2.6-8.2,4.2-16.7,7.3-24.8
	c3.5-9.2,8.9-17.5,15.8-24.5c11.2-11.3,25.9-18.5,40.2-25.4c8.4-4.1,16.8-8.1,25.7-11.1c20.5-6.7,42.5-6.9,63.1-0.8
	C236.6,8.5,242.1,10.7,247.3,13.4z"/>
<linearGradient id="SVGID_1_" gradientUnits="userSpaceOnUse" x1="145.1404" y1="898.9393" x2="145.1404" y2="987.9093" gradientTransform="matrix(1.0253 0 0 1.0253 -3.3343 -705.6136)">
	<stop  offset="1.000000e-02" style="stop-color:#000000"/>
	<stop  offset="8.000000e-02" style="stop-color:#000000;stop-opacity:0.69"/>
	<stop  offset="0.21" style="stop-color:#000000;stop-opacity:0.32"/>
	<stop  offset="1" style="stop-color:#000000;stop-opacity:0"/>
</linearGradient>
<path class="st1" d="M202.7,266.9c1.6,0.4,3.1,1.1,4.3,2.2c3.2,3.1,1.7,9-1.9,11.6s-8.3,3.1-12.8,3.5c-14.8,1.3-29.5,3.3-44.1,6.2
	c-14.2,2.8-28.6,6.3-43.2,5.8c-5.1-0.2-17.7-0.4-21.4-4.6c-4.8-5.4,5.4-11.6,9.6-14.5c17.4-12.1,37.9-9.4,58-12.4
	C168.2,262.2,186,261.5,202.7,266.9z"/>
<linearGradient id="SVGID_2_" gradientUnits="userSpaceOnUse" x1="286.7337" y1="893.0791" x2="296.3037" y2="970.7891" gradientTransform="matrix(1.0253 0 0 1.0253 -3.3343 -705.6136)">
	<stop  offset="1.000000e-02" style="stop-color:#000000"/>
	<stop  offset="8.000000e-02" style="stop-color:#000000;stop-opacity:0.69"/>
	<stop  offset="0.21" style="stop-color:#000000;stop-opacity:0.32"/>
	<stop  offset="1" style="stop-color:#000000;stop-opacity:0"/>
</linearGradient>
<path class="st2" d="M274.7,237.7c-2.4,0.7-4.8,1.9-6.1,4c-0.6,1.3-1.1,2.6-1.5,3.9c-1.7,4.8-5.5,8.6-10.3,10.3
	c-1.4,0.5-2.9,0.9-3.7,2.1c-0.8,1.3-0.8,3,0.1,4.2c0.9,1.2,2.1,2.2,3.5,2.7c5,2.3,10.8,2.3,16.2,1.3c5.4-1.1,10.6-3.1,15.8-4.8
	c6.8-2.1,13.8-3.6,20.9-4.5c5.6-0.6,11.3-0.9,16.7-2.6c5.4-1.7,10.5-5.2,12.6-10.5c-6.7-6.9-17.4-7.7-27-7
	C299.8,238,286.7,234,274.7,237.7z"/>
<linearGradient id="SVGID_3_" gradientUnits="userSpaceOnUse" x1="54.9289" y1="883.4297" x2="64.4989" y2="961.1397" gradientTransform="matrix(1.0253 0 0 1.0253 -3.3343 -705.6136)">
	<stop  offset="1.000000e-02" style="stop-color:#000000"/>
	<stop  offset="8.000000e-02" style="stop-color:#000000;stop-opacity:0.69"/>
	<stop  offset="0.21" style="stop-color:#000000;stop-opacity:0.32"/>
	<stop  offset="1" style="stop-color:#000000;stop-opacity:0"/>
</linearGradient>
<path class="st3" d="M37.1,227.9c-2.4,0.7-4.8,1.9-6.1,4c-0.6,1.3-1.1,2.6-1.5,3.9c-1.7,4.8-5.5,8.6-10.3,10.3
	c-1.3,0.5-2.9,0.9-3.7,2.1c-0.8,1.3-0.8,3,0.1,4.2c0.9,1.2,2.1,2.2,3.5,2.7c5,2.3,10.8,2.3,16.2,1.3c5.4-1.1,10.6-3.1,15.8-4.8
	c6.8-2.1,13.8-3.6,20.9-4.5c5.6-0.6,11.3-0.9,16.7-2.6s10.5-5.2,12.6-10.5c-6.7-6.9-17.4-7.7-27-7C62.2,228.1,49,224.1,37.1,227.9z"
	/>
<linearGradient id="SVGID_4_" gradientUnits="userSpaceOnUse" x1="-1594.9042" y1="501.3504" x2="-1607.4641" y2="331.7604" gradientTransform="matrix(1.0253 0 0 -1.0253 1812.0956 656.4996)">
	<stop  offset="1.000000e-02" style="stop-color:#000000"/>
	<stop  offset="8.000000e-02" style="stop-color:#000000;stop-opacity:0.69"/>
	<stop  offset="0.21" style="stop-color:#000000;stop-opacity:0.32"/>
	<stop  offset="1" style="stop-color:#000000;stop-opacity:0"/>
</linearGradient>
<path class="st4" d="M136.1,214.1c-6.3,1.1-12.7,2.4-18.1,5.7c-1.9,1.1-3.7,2.8-3.9,4.9c-0.3,2.4,1.5,4.6,3.7,5.6
	c2.3,0.8,4.7,1.2,7.1,1l28.2,0.2l20.8,0.1c2.5,0,5.4-0.4,7.9,0c4.5,0.8,8.5,3,13.3,3.2c6.2,0.3,12.5-0.9,18.6-2.1
	c3.8-0.7,7.7-1.5,11.1-3.5c1.3-0.8,2.7-2.1,2.6-3.6c-0.1-0.9-0.6-1.8-1.3-2.5c-4.7-4.9-12.5-4.5-19.2-6c-7.1-1.6-13.5-5.7-20.6-6.9
	c-3.3-0.4-6.6-0.6-9.9-0.4c-5.9,0.1-11.9-0.6-17.7,0.3C151.1,211.5,143.6,212.8,136.1,214.1z"/>
<path class="st5" d="M174.3,204.4c-5.2-1.2-4.2,6.3-5.6,9c-0.9,1.4-2,2.7-3.2,3.7c-1.3,1.1-2.1,2.6-2.4,4.2c0,0.3,0,0.6,0.2,0.9
	c0.3,0.3,0.6,0.6,1,0.6c3,0.9,6.2,0.6,9-0.9c1.3-0.6,2.4-1.6,3.1-2.9c0.6-1.3,0.8-2.8,0.8-4.2C177.3,211.8,178.7,205.3,174.3,204.4z
	"/>
<path class="st6" d="M169.6,219.7c0,0-14.9,0.6-8.6,5.3c6.3,4.7,15.8-1.1,16.7-2.3s0.2-2.9,0.2-2.9L169.6,219.7z"/>
<path class="st7" d="M177.1,221.7c-1.3,1.6-8.4,3.8-11.5,3.6c-3.1-0.2-5.9-1.7-5.6-3.7c0.3-2,5.8-6.7,6.8-6.7c1,0,1.8,2.4,3.9,2.9
	c1.9,0.3,3.8-0.4,5-1.8c0.4-0.5,1.1-0.7,1.7-0.4C178.4,217.6,178.3,219.9,177.1,221.7z"/>
<path class="st5" d="M192.3,207.3c-5.2-1.2-4.2,6.2-5.6,9c-0.9,1.4-2,2.7-3.2,3.7c-1.3,1.1-2.1,2.6-2.4,4.2c0,0.3,0,0.6,0.2,0.9
	c0.3,0.3,0.6,0.6,1,0.6c3,0.9,6.2,0.5,9-0.9c1.3-0.6,2.4-1.6,3.1-2.9c0.6-1.3,0.8-2.8,0.8-4.2C195.3,214.6,196.7,208.2,192.3,207.3z
	"/>
<path class="st6" d="M187.7,222.5c0,0-14.9,0.6-8.6,5.3c6.3,4.7,15.8-1.1,16.7-2.2c0.9-1.1,0.2-2.9,0.2-2.9L187.7,222.5z"/>
<path class="st7" d="M195.1,224.6c-1.3,1.6-8.3,3.8-11.5,3.6c-3.1-0.2-5.9-1.7-5.6-3.7c0.3-2,5.8-6.7,6.8-6.7c1,0,1.9,2.4,3.9,2.9
	c1.9,0.3,3.8-0.4,5.1-1.8c0.4-0.5,1.1-0.7,1.7-0.4C196.4,220.4,196.3,222.7,195.1,224.6z"/>
<path class="st8" d="M178.8,139.5l7,73.8l10.1-1.3c4-18,3-71.9,3-71.9L178.8,139.5z"/>
<path class="st8" d="M185.8,137.5l-7,73.8l-10.2-1.2c-5.8-46.7-1-75.9-1-75.9L185.8,137.5z"/>
<path class="st7" d="M168.5,110.8c-0.1-1.4-0.5-2.7-0.6-4.1c-0.3-2.8-0.3-5.6,0.2-8.4c0.5-3,1.4-5.8,2.6-8.5
	c1.2-2.3,3.3-3.3,5.6-4.5c2-1.1,4.1-1.8,6.4-2.2c1.6-0.1,3.2-0.1,4.7,0.3c4.8,0.9,11.1,3.4,14.4,7.2c2.5,2.8,2.7,6.9,2.8,10.6
	c0.1,5.2,0,10.3-0.3,15.5c0,0.7-0.1,1.5-0.1,2.2c-0.4,5.6-0.9,11.5-2.5,17c-0.5,1.7-1,3.4-2.6,4.4c-3.7,2.2-9.4,1-13.5,0.4
	c-5.3-0.8-10.8-1.5-15.6-4.1c-1-0.4-1.8-1.2-2.3-2.2c-0.4-1.2,0.1-2.4,0.5-3.6c1.6-5.3,0.4-10.8,0.4-16.2c0-1,0.1-2,0.1-2.9
	C168.6,111.3,168.5,111.1,168.5,110.8z"/>
<path class="st9" d="M181.5,90c0.5-1,1.2-2,1.9-2.8c0.1-0.1,0.2-0.2,0.3-0.3c0.1,0,0.3,0,0.4,0l4.6,0.7c0.2,0,0.4,0.1,0.6,0.2
	c0.1,0.1,0.3,0.3,0.3,0.5c0.3,1.1,0.1,2.3-0.4,3.3c-1.3,2.6-2.9,5-4.7,7.2c-1,1.4-1.9,2.9-2.6,4.4c-0.3,0.8-0.5,1.7-0.8,2.5
	c-0.3,0.8-1,0.4-1.6,0.2l-7.1-1.5l-3.5-0.7c-0.5-0.1-0.9-0.1-0.6-0.7c0.2-0.4,0.5-0.6,0.9-0.7c0.6-0.1,1.1-0.2,1.7-0.3
	c1.2-0.3,2.3-0.8,3.2-1.6c0.8-0.5,1.5-1,2.1-1.6C178.7,96.5,179.9,93,181.5,90z"/>
<path class="st7" d="M173.8,85.5c0.5-0.6,1.1-1.2,1.9-1.5c1.7-0.6,3.3,0.8,5.1,1.2c1.3,0.3,2.9,0.1,3.7,1.2c0.5,0.9,0.5,2,0,3
	c-1.4,4.6-3.2,9.2-5.3,13.5c-0.8,1.8-1.9,3.3-2.8,5c-1,1.9-1.2,3.8-2.7,5.5c-1.4,1.7-4.1,2.8-6.2,2c-1.1-0.5-2-1.2-2.6-2.2
	c-2.7-3.9-0.8-8,0.7-11.9C166.4,98.6,173.3,86.1,173.8,85.5z"/>
<path class="st9" d="M196.9,140.9c-1.8,0.3-3.9,1.6-5.8,1.3c-2.1-1-4.3-1.6-6.6-1.8c-3.1-0.4-6.3-1.8-9.2-2.7
	c-1.2-0.3-2.4-0.9-3.4-1.7c-1.8-1.9-1.3-4.9-0.9-7.4c0.5-3.7,0.5-7.6-0.2-11.3c-0.3-1.8-0.7-3.5-1.4-5.1c-0.6-1.3-1.4-2.1-1.2-3.7
	c0.2-1.4,1.1-2.9,2.6-3.1c0.8,0,1.6,0.3,2.3,0.7c1.9,1,4,1.8,6.2,2.2c5.3,0.7,10.6-1.8,13.5-6.4c1.4-2.2,2.8-12.4,6.7-11
	c2.6,1.1,4.5,3.3,5.3,5.9c0.8,2.7,1.1,5.4,0.9,8.2c-0.1,7.2-1.5,14.5-2.4,21.6c-0.4,2.7-0.8,12.7-4.3,13.6
	C198.3,140.4,197.6,140.7,196.9,140.9z"/>
<path class="st5" d="M171.4,100.9c-1.3-0.8-3-0.9-4.4-0.3c-1.4,0.7-2.3,2.1-2.3,3.7c0.1,1.1,0.4,2.1,1,2.9c0.3,0.6,0.8,1.1,1.3,1.4
	c0.8,0.5,1.8,0.7,2.8,0.6c0.9,0,1.7-0.3,2.5-0.7c1.1-0.6,2.6-2.5,2.3-3.9C173.9,103.2,172.8,101.8,171.4,100.9z"/>
<path class="st7" d="M203.1,92.1c4.3,7.2,5.8,15.6,7.3,23.9c0.2,1,0.3,2.1,0.1,3.1c-0.5,1.8-2,3.3-3.9,3.7c-1.8,0.4-3.7,0.5-5.6,0.3
	c-4-0.3-8.8-0.6-12.2-2.9c-1.2-0.8-2.2-1.8-3.4-2.6c-1.2-0.7-2.4-1.3-3.6-1.8c-2.4-1.1-4.7-2.4-6.8-4c-0.7-0.5-1.3-1.1-1.8-1.8
	c-0.7-1.4-0.2-3.1,0.4-4.5c0.1-0.4,0.3-0.7,0.6-0.9c0.4-0.2,0.9-0.2,1.3,0c5.8,1.7,11.6,3,17.6,3.9c1.6,0.3,0.9-1.5,0.7-2.5
	c-0.4-1.3-0.6-2.6-0.9-4c-0.4-3.9,1.1-7.8,4.1-10.3c0.8-0.7,1.7-1.2,2.7-1.3C201,90.4,202.2,91,203.1,92.1z"/>
<path class="st5" d="M181.2,75.3c-0.2-0.7-0.3-1.4-0.3-2.2c-0.3-3.1-0.6-6.3,0.9-8.9c1.9-3.5,6.3-4.7,9.8-2.7
	c1.2,0.6,2.1,1.6,2.7,2.7c0.9,1.7,1.3,3.5,1.1,5.4c-0.2,1.9-0.5,3.7-1,5.5c-0.5,1.9-1.7,3.1-2.5,4.8c-0.2,0.8-0.4,1.5-0.3,2.3
	c0.1,1.2,0.1,2.4,0,3.6c-1.2,0.8-2.5,1.2-3.9,1.4c-0.7,0-1.3-0.1-1.9-0.3c-0.3-0.1-0.7-0.3-0.9-0.6c-0.1-0.3-0.1-0.5-0.1-0.8
	c0-0.3,0.1-0.5,0.1-0.8c0.1-1.3,0.1-2.6-0.1-3.8c-0.4-1-1.1-1.9-2-2.5C181.9,77.5,181.4,76.4,181.2,75.3z"/>
<path class="st9" d="M181.9,76.7c1.4-0.2,2.8-0.5,4.1-0.8c0.5-0.1,1-0.2,1.4,0.1c0.2,0.2,0.3,0.4,0.3,0.6c0.2,0.5,0.2,0.9,0.2,1.4
	c-0.1,0.4-0.2,0.8-0.3,1.2c-0.1,0.4-0.1,0.8,0.1,1.2c0.3,0.5,1,0.6,1.2,1.1c0.2,0.5-0.2,0.8-0.4,1.1c-0.1,0.5-0.2,0.9-0.3,1.4
	c0,0.5-0.1,1.1-0.2,1.6c-0.2,0.5-0.7,1-1.3,1.1c-0.6,0.1-1.2,0-1.7-0.3c-0.6-0.6-1-1.5-1-2.3l-0.6-2.8c-0.2-1-0.4-1.9-0.7-2.8
	c-0.3-0.6-0.7-1.2-1.1-1.8L181.9,76.7z"/>
<path class="st10" d="M94.7,129.6c0,0,0.6,2.6-5.5,4.5c-6.1,1.9-8.4-4.5-8.4-4.5S92.4,125.1,94.7,129.6z"/>
<path class="st11" d="M63.3,194.6l0.7-2.7l1.8-7c0.1-0.3,0.2-0.6,0.4-0.9c0.3-0.2,1.1,2.4,1.5,2.4c2-0.1,4,0,6,0.4
	c0.5,0.1-1.6,30.2-1.8,33.2c-0.4,6.8-0.1,20.1,0.9,20.1c-2,0.2-6,0.4-6.9-0.5c-1.5-1.5,1.1-11.5-1.8-23.1c-0.7-2.9-1.1-5.8-1.2-8.7
	C62.9,203.4,62.2,198.8,63.3,194.6z"/>
<path class="st11" d="M77.4,228.1c0.2-0.4,0.4-0.8,0.6-1.3c0.5-1.5,0.1-3.1,0.2-4.6c0.1-0.8,0.1-1.6,0-2.4c-0.2-2.1-0.4-4.1-0.7-6.2
	c-0.4-3.5-1.3-7.1-1.3-10.6c0-2.7,2.2-11.2,2.2-11.2l-2.2-11h11c0,0,1.4,9.2,1,10.3c-0.8,2.1-1.3,4.3-1.4,6.5c0,4-0.5,8-0.8,11.9
	c-0.3,4.3-0.7,8.7-1,13c-0.1,1.6-0.3,3.1-0.4,4.7c-0.1,2.3,0.3,4.6,1.2,6.7c0.3,1,0.7,2.1,0.1,2.9c-0.7,0.8-2.1,0.5-3.1,0
	c-1.4-0.9-2.8-1.7-4.3-2.3c-0.6-0.1-1.2-0.4-1.7-0.7c-1-0.8-1-2.3-0.6-3.5C76.7,229.5,77,228.8,77.4,228.1z"/>
<path class="st10" d="M84.5,98.9c0,0-1.3-3.3,1.6,0c2.8,3.3,7.4,22.8,7.4,22.8s-6.4,5.9-8.2,4.7C83.5,125.3,84.5,98.9,84.5,98.9z"/>
<path class="st12" d="M81.8,67.8c3.6,1.5,4.4,6.8,4.2,10.1c-0.3,4.2-3.8,8.4-2.6,12.6c0.8,2.2,1.2,4.4,1.1,6.7
	c-0.2,2.3-1.6,4.6-3.9,5.1c-0.5,0.1-1.1,0.2-1.5,0.4c-0.6,0.5-1.1,1.1-1.4,1.8c-2.1,4.2-5.7,7.4-10.2,8.9c-4.4,1.3-9.6,0.3-12.8-3.1
	c-3.1-3.4-3.6-9.1-0.6-12.7c0.9-1,2-2,2.1-3.3c0-0.6-0.1-1.2-0.3-1.8c-0.3-2.3,0.9-4.6,3-5.7c1.7-0.8,3.8-0.8,5.1-2.1
	c1.4-1.5,1.1-3.9,1-5.9C64.2,68.3,72.3,63.9,81.8,67.8z"/>
<path class="st6" d="M58.5,157.8c-0.9,8.4,0.6,17,2.1,25.4c0.3,2,0.8,4.1,2.2,5.5c1.2,0.9,2.5,1.5,4,1.8c9.6,2.2,19.6,1.2,28.5-3
	l-2.3-20.9c-0.6-5.6-1.2-11.3-3.2-16.5c-0.4-1-6.2-10.7-4.8-11.5c-2.7,1.7-5.9,1.4-9,2.2c-3.7,0.9-7.3,2.2-10.6,4.1
	c-3.5,1.5-5.9,4.8-6.3,8.5C58.9,154.8,58.6,156.3,58.5,157.8z"/>
<linearGradient id="SVGID_5_" gradientUnits="userSpaceOnUse" x1="44.5219" y1="851.947" x2="95.7619" y2="848.2869" gradientTransform="matrix(1.0253 0 0 1.0253 -3.3343 -705.6136)">
	<stop  offset="1.000000e-02" style="stop-color:#000000"/>
	<stop  offset="8.000000e-02" style="stop-color:#000000;stop-opacity:0.69"/>
	<stop  offset="0.21" style="stop-color:#000000;stop-opacity:0.32"/>
	<stop  offset="1" style="stop-color:#000000;stop-opacity:0"/>
</linearGradient>
<path class="st13" d="M58.5,157.8c-0.9,8.4,0.6,17,2.1,25.4c0.3,2,0.8,4.1,2.2,5.5c1.2,0.9,2.5,1.5,4,1.8c9.6,2.2,19.6,1.2,28.5-3
	l-2.3-20.9c-0.6-5.6-1.2-11.3-3.2-16.5c-0.4-1-6.2-10.7-4.8-11.5c-2.7,1.7-5.9,1.4-9,2.2c-3.7,0.9-7.3,2.2-10.6,4.1
	c-3.5,1.5-5.9,4.8-6.3,8.5C58.9,154.8,58.6,156.3,58.5,157.8z"/>
<path class="st11" d="M81.6,90c0,0-2.8,3.5-2.8,5.7c0,1.4-0.2,2.9-0.6,4.2c0,0-0.4,2.6-1.9,1.6c-1.4-1-6.5-7.8-6.5-7.8l5.5-7.3
	L81.6,90z"/>
<path class="st10" d="M90.2,152.3c0,0-1.1-12.6-3.2-17.6c-0.6-1.8-0.7-3.8-0.4-5.6c0.4-4.4,1.8-8.7,2.5-13.1c0.2-2,0.1-4-0.4-5.9
	c-0.8-3.8-1.7-7.6-2.7-11.4c-0.1-0.5-0.3-0.9-0.6-1.3c-0.3-0.3-0.8-0.6-1.2-0.7l-5.5-2.1c0.6,1.8,1.1,3.7,0.3,5.4
	c-0.2,0.5-0.6,0.9-1,1.1c-1,0.4-2.1-0.3-2.9-1c-1.2-1.2-2.2-2.7-2.8-4.3c-0.3-0.8-0.5-1.7-0.6-2.6c-0.1-0.6,0.1-1.6-0.4-2
	c-0.8,1.4-2.4,2.1-3.6,3s-2.8,2.1-4.3,3.1c-1.2,0.7-2.2,1.7-2.9,2.9c-0.3,1-0.3,2.2,0,3.2c0.3,1.2,0.7,2.3,0.9,3.5
	c0.2,1.5,0.3,3,0.4,4.5c0.2,2.2,0.6,4.5,1.2,6.7c0.2,1.3,0.3,2.7,0.4,4c0,0,2.1,7.6,1.6,9.5c-0.4,1.9-4.2,9.1-4.5,12.2
	c-0.2,3.2,1.2,9.8,1.2,9.8s3.5,0.2,7.5,0.4c4.6,0.2,13-1.8,13.7-2.4c0.8-0.8,1.3-6.7,1.2-10.6c1.9,6.1,3.3,11.2,3.3,11.2H90.2z"/>
<path class="st14" d="M62.9,160c0.8,0.2,1,0.9,1.6,1.8c0.8,1.2,1.5,2.4,2.1,3.7c0.2,0.2,0.2,0.5,0,0.7c-0.1,0.1-0.2,0.1-0.3,0.1
	c-0.7,0.2-1.4,0.3-2.1,0.2c-0.3,1.6,0,3.3,0.7,4.8c0.2,0.4,0.4,0.8,0.1,1.1c-0.1,0.1-0.3,0.2-0.5,0.2c-1.5,0.1-2.9-0.3-4.2-1
	c-0.7-0.3-1.4-0.8-2-1.3c-0.8-0.9-1.3-2-1.7-3.2c0-0.7,0.1-1.5,0.2-2.2c0-0.3,0.3-4.8,0.5-4.8l4.8-0.2
	C62.4,159.9,62.7,159.9,62.9,160z"/>
<polygon class="st7" points="62.9,158.2 63.3,160.1 56.7,161.3 56.7,159.1 "/>
<path class="st10" d="M62.9,133c0,0,5.3-12.7,4.5-17.1s-3.7-14.9-6-14.8s-2.9,3.1-2.9,5.8s-4.5,27.7-4.8,30
	c-0.3,2.3,2.5,23.6,2.5,23.6l7.5-1.7L62.9,133z"/>
<path class="st14" d="M83,71.3c0.1,0.1,0.2,0.2,0.3,0.3c0.5,0.9,0.9,1.9,1,3c1.4,5.1,3.4,10,0.6,15.1c-0.2,0.4-0.5,0.8-0.9,1.1
	c-0.4,0.3-0.8,0.4-1.2,0.5c-2.1,0.4-4.2,0.1-6.1-1c-1.1-0.5-2.1-1.1-3.1-1.7c-0.4-0.3-0.8-0.7-1-1.2c-0.2-0.5-0.6-1-0.4-1.5
	c0.1-0.4,0.3-0.7,0.4-1.1c0.1-0.6,0-1.3-0.3-1.8c-0.1-0.2-0.2-0.5-0.1-0.8c0.2-0.4,0.8-0.4,1.3-0.5c0.8-0.3,1.4-0.9,1.7-1.7
	c0.5-0.9,0.8-1.9,1-2.9c0.1-0.9,0.4-1.7,0.7-2.5c0.7-1.1,1.7-2,2.9-2.5C80.6,71.6,82.1,70.7,83,71.3z"/>
<path class="st15" d="M85.3,78.7l0.5-0.4c0,0,0.1,0.3,0.3,0.3c0.1,0,0.3-0.1,0.4-0.2c0,0-0.3,0.4-0.4,0.4
	C85.8,78.9,85.6,78.9,85.3,78.7L85.3,78.7z"/>
<path class="st15" d="M85.7,78.4l0.2-0.3c0,0,0.2,0.1,0.3,0.1c0.1-0.1,0.2-0.1,0.2-0.2c0,0-0.1,0.3-0.2,0.3
	C86.1,78.3,85.9,78.4,85.7,78.4L85.7,78.4z"/>
<polygon class="st6" points="108.2,111.6 89.1,111.6 72.6,132.4 90.7,131.6 "/>
<path class="st11" d="M96.8,128.6c0-0.2,0.1-0.4,0.1-0.6c0.2-1.3,0.2-2.6-0.1-3.9c-0.3-1.3-1.1-2.4-2.2-3.1
	c-0.1-0.1-0.2-0.1-0.3-0.1c-0.3,0-0.6,0.2-0.6,0.5c0,0.3,0.1,0.6,0.2,0.9c0.3,0.8,0.6,1.7,0.7,2.6l-1-1.1c-0.3-0.4-0.6-0.6-1-0.8
	c-0.4-0.2-0.9,0-1.1,0.5c0,0.3,0,0.5,0.1,0.7l0.9,2.6c-0.4-0.8-1.1-1.5-1.9-2c-0.3,0.5-0.3,1.1,0,1.6c0.3,0.5,0.6,1,0.8,1.5
	c-0.2-0.3-0.4-0.5-0.6-0.8c-0.2-0.3-0.6-0.4-0.9-0.2c-0.2,0.2-0.2,0.5-0.1,0.8c0.6,2,0.9,4,0.7,6.1l1.1-0.3c0.9-0.3,1.8-0.7,2.6-1.3
	C95.7,131.4,96.6,130.1,96.8,128.6z"/>
<path class="st16" d="M216.5,126.9c0.3-0.3,0.9-0.5,1.2-0.2c0.2,0.2,0.3,0.6,0.3,0.9v1.8c3.1-1,5.5-3.5,7.8-5.8
	c0.5-0.5,1.2-1,1.8-0.7c0.4,0.3,0.6,0.9,0.5,1.4c-0.2,0.5-0.3,1-0.4,1.5c0,0.8,0.6,1.6,0.7,2.4c0.1,1-0.6,1.9-0.7,3v1
	c-0.2,0.6-0.5,1.2-0.9,1.7c-1,1.6-2.4,2.9-4,3.8c-1.1,0.5-2.3,0.8-3.5,0.9l-3.7,0.6c-0.4,0.1-0.7,0.1-1.1,0
	c-1.1-0.4-1.5-2.2-1.4-3.2c0.2-0.9,0.5-1.8,1-2.6C214.9,131.3,214.7,128.4,216.5,126.9z"/>
<path class="st16" d="M106.4,115.6c-0.2-0.4-0.7-0.8-1.1-0.6c-0.3,0.2-0.5,0.4-0.5,0.8l-0.6,1.7c-2.7-1.8-4.2-4.9-5.7-7.8
	c-0.3-0.6-0.8-1.3-1.5-1.2c-0.5,0.2-0.8,0.7-0.8,1.2c0,0.5,0,1-0.1,1.6c-0.2,0.8-1,1.3-1.4,2.1c-0.4,0.9,0,2.1-0.2,3.1
	c-0.1,0.3-0.2,0.6-0.3,1c0,0.6,0.1,1.3,0.4,1.9c0.5,1.8,1.4,3.5,2.7,4.8c0.9,0.8,1.9,1.4,3,1.9l3.4,1.7c0.3,0.2,0.7,0.3,1,0.3
	c1.2,0,2.1-1.7,2.3-2.6c0.1-0.9,0.1-1.9-0.2-2.8C106.6,120.3,107.7,117.6,106.4,115.6z"/>
<path class="st17" d="M138.4,282.4c0,0.1,0,0.2,0.1,0.2c0.5,1.2,1.9,1.6,3.2,1.7c1.2,0.1,2.4,0.2,3.6,0.2c0.6,0,1.1-0.1,1.7-0.2
	c0.5-0.2,1-0.5,1.4-0.9l3.4-2.5c1-0.7,1.8-1.4,2.6-2.3c0.8-0.9,1.2-2,1.1-3.2c-0.1-1.2-0.9-2.2-2.1-2.5c-0.7-0.1-1.4-0.1-2.2,0.1
	c-1.5,0.1-3.5-0.5-4.1-2.1c-0.2-0.6-0.5-1.2-1-1.7c-0.5-0.2-1.1-0.3-1.6-0.2c-1.2,0-2.4,0.3-3.5,0.7c-1.1,0.4-2,1.3-2.4,2.5
	c-0.1,0.5-0.2,1.1-0.2,1.6c0.1,1.1,0.1,2.2,0,3.3c-0.2,1.4-0.2,2.8-0.2,4.2C138.3,281.6,138.3,282,138.4,282.4z"/>
<path class="st17" d="M171.7,282.8c-2.3,1.1-4.7,2-7.1,2.7c-1,0.4-2.1,0.5-3.1,0.2c-0.8-0.4-1.4-1.2-1.6-2.1
	c-0.2-0.9-0.3-1.8-0.3-2.7c0-1.5,0.6-2.6,0.9-4c0.2-1.2,0.4-2.5,0.6-3.7c0.2-1.8,0.5-3.5,0.7-5.3l6.2,1.3c0.6,0.1,1.3,2.6,1.6,3.1
	c0.6,0.8,1.5,1.3,2.5,1.3c1,0.1,2.1-0.4,3.2-0.3c1.4,0.3,2.4,1.6,2.4,3c0,1.4-0.6,2.8-1.7,3.7c-1,0.9-2.2,1.7-3.5,2.2L171.7,282.8z"
	/>
<path class="st6" d="M171.7,275.9c-1.6,0.9-3.3,1.7-5,2.4l-0.2,0.1c-2.9,1.1-6-3.4-6-3.4s-4-24.9-3.8-35.2
	c0.1-7.1-1.5-17.2-4.1-35.5c-0.6,18.7-3.8,26.9-3,33.6c1.2,10.2-0.2,35.5-0.2,35.5s-2.7,4.9-5.7,4.3h-0.2c-1.8-0.4-3.5-0.9-5.2-1.6
	c0,0-3.4-34.9-3.4-44.1s0.4-17.4,0.4-17.4l-1.8-29.1l7.7-11.1l0.6-0.3l0.6-0.6l8.5-6.2c0,0,0,1.5-0.2,3.9l6.6,3.5l0.6,0.5l0.6,0.2
	l11.1,1.9c0,0,2.9,44.7,3.8,53.8C174.4,240.3,171.7,275.9,171.7,275.9z"/>
<linearGradient id="SVGID_6_" gradientUnits="userSpaceOnUse" x1="112.7513" y1="852.4598" x2="208.4813" y2="986.4899" gradientTransform="matrix(1.0253 0 0 1.0253 -3.3343 -705.6136)">
	<stop  offset="1.000000e-02" style="stop-color:#000000"/>
	<stop  offset="8.000000e-02" style="stop-color:#000000;stop-opacity:0.69"/>
	<stop  offset="0.21" style="stop-color:#000000;stop-opacity:0.32"/>
	<stop  offset="1" style="stop-color:#000000;stop-opacity:0"/>
</linearGradient>
<path class="st18" d="M171.7,275.9c-1.6,0.9-3.3,1.7-5,2.4l-0.2,0.1c-2.9,1.1-6-3.4-6-3.4s-4-24.9-3.8-35.2
	c0.1-7.1-1.5-17.2-4.1-35.5c-0.6,18.7-3.8,26.9-3,33.6c1.2,10.2-0.2,35.5-0.2,35.5s-2.7,4.9-5.7,4.3h-0.2c-1.8-0.4-3.5-0.9-5.2-1.6
	c0,0-3.4-34.9-3.4-44.1s0.4-17.4,0.4-17.4l-1.8-29.1l7.7-11.1l0.6-0.3l0.6-0.6l8.5-6.2c0,0,0,1.5-0.2,3.9l6.6,3.5l0.6,0.5l0.6,0.2
	l11.1,1.9c0,0,2.9,44.7,3.8,53.8C174.4,240.3,171.7,275.9,171.7,275.9z"/>
<path class="st16" d="M162.5,99.6c0.7,0.7,1.7,1.4,1.5,2.3c-0.2,0.5-0.7,0.8-1,1.1c-1,1-1.6,2.4-1.5,3.8c0,1.4-0.2,2.8-0.6,4.1
	c-0.5,1.4-1.9,2.2-3.3,2c-0.8-0.2-1.6-0.9-2.4-0.6c-0.6,0.3-0.8,1-1.1,1.5c-0.9,1.3-2.5,2.1-4.1,1.8c-1.6-0.2-3.1-0.7-4.5-1.5
	c-0.6-0.2-1.1-0.6-1.5-1.1c-0.2-0.5-0.3-1.1-0.2-1.6c0.3-1.6,1.4-3,2.3-4.4c1.7-2.6,2.7-5.6,3-8.7c0.2-2.2,0-4.5,1.4-6.2
	c1.9-2.3,6.4-2.2,8.7-0.6C161.9,93.5,160.4,97.4,162.5,99.6z"/>
<path class="st10" d="M159.8,89.8c-0.3,0.5-0.7,1-1.2,1.3c-1,0.6-1.9,1.3-2.9,2c-0.9,0.6-1.6,1.6-1.8,2.7c-0.4,2.1,0.7,4.2,0,6.2
	c-0.2,0.4-0.9,0.2-1.2-0.2s-0.4-0.9-0.8-1.1c-0.7-0.4-1.5,0.3-1.8,1c-0.6,1.8,0.2,3.7,2,4.4c-0.1,0.6-0.9,0.9-1.5,0.8
	c-0.6-0.2-1.3-0.3-1.9-0.2c-1.5,0.3-2.1,2.4-3.5,2.6c-1-0.1-2-0.6-2.5-1.5l-1.8-2.1c-0.3-0.4-0.6-0.7-0.9-1c-0.4-0.3-1-0.3-1.4-0.7
	c-0.4-0.4,0-1.3-0.4-1.7c-0.2-0.2-0.4-0.3-0.6-0.4c-1.1-0.5-1.6-1.7-1.3-2.9c0-0.1,0-0.3,0-0.4c-0.1-0.2-0.3-0.3-0.5-0.4
	c-1.1-0.7-1.6-2.1-1-3.4c0.3-0.7,0.7-1.3,1.2-1.8c0.4-0.6,1.1-0.9,1.8-0.8l0.3-2.6c0-0.5,0.1-1,0.4-1.5c0.6-1,1.9-1.3,3.1-1.4
	l-0.5-2.1c-0.1-0.3-0.1-0.6,0-0.8c0.2-0.2,0.4-0.3,0.6-0.4c0.7-0.2,1.4-0.3,2.1-0.3c-0.3-0.6-0.5-1.2-0.6-1.8c0-0.1,0-0.2,0-0.4
	c0.1-0.2,0.4-0.4,0.6-0.3c0.3,0.1,0.5,0.1,0.8,0c0,0-0.4-1.8-0.4-1.9c-0.1-0.6,0-1.2,0.3-1.6c0.4-0.5,1.1-0.7,1.7-0.6
	c0.6,0.1,1.3,0.3,1.8,0.7c-0.1-0.7,0.8-1,1.5-1.1c2.7-0.2,5.2,1.1,6.8,3.3c0.1,0.2,0.3,0.4,0.4,0.5c0.3,0.2,0.7,0.4,1,0.5
	c1.1,0.5,2,1.5,2.3,2.7c0.3,1.2,0.4,2.4,0.4,3.6c0,0.9-0.1,1.8-0.3,2.7C160,89.3,159.9,89.6,159.8,89.8z"/>
<path class="st7" d="M150,112c1.6,0.7,3.2,1.5,4.7,2.4c0.5,0.2,0.9,0.6,1.2,1c0.3,0.5,0.4,1.1,0.2,1.6c-0.4,0.7-1.4,0.5-2.1,0.2
	c-3.5-1.4-7.2-1.5-10.7-1.5c-0.5,0.1-1-0.1-1.3-0.5c-0.2-0.5-0.1-1,0.1-1.5C144,110,147,110.6,150,112z"/>
<path class="st7" d="M217.1,140.9c-0.7,1.8-1.8,3.4-3.1,4.7c-1.3,1.4-2.6,2.8-3.9,4.1c-3.2,3.1-6.6,6-10.2,8.8
	c-2.5,2-5.2,3.9-8.4,4.5c-1.3,0.3-2.6,0.2-3.8-0.2c-1-0.5-1.9-1.2-2.6-2.1c-0.9-0.9-11.4-12.9-11.5-12.9c-0.6,0.3-1,0.8-1.3,1.5
	c-1.5,3.1-2.5,6.5-2.8,10c-0.1,1.5-0.1,3.1,0,4.7c0.4,5.3,2.3,10.7,0.4,15.6c-0.4,1.1-1,2-1.8,2.8c-0.8,0.7-1.7,1.2-2.6,1.5
	c-1.7,0.7-3.4,1.2-5.2,1.5c-1,0.2-2,0.3-3.1,0.3c-3.8,0.1-7.6-0.6-11.5-0.4c-3.3,0.2-6.5,1-9.7,0.9c-1.2,0.1-2.4-0.4-3.3-1.2
	c-0.4-0.6-0.6-1.2-0.7-1.9c-1.3-7-1.9-14-2-21.1c0-3.3-0.5-15.2-1.6-17.4c-0.1-0.3-0.3-0.4-0.4-0.4c-3.6,1-11.5,3.1-15.2,3.7
	c-0.5,0.1-1.1,0.2-1.6,0.1c-0.6-0.1-1.1-0.4-1.5-0.8c-4.6-3.4-7.2-8.4-8.8-13.7c-0.3-1-0.6-2.1-0.9-3.1c-0.6-1.1-0.1-2.5,1-3.1
	c0,0,0,0,0,0c0.1,0,0.1-0.1,0.2-0.1l6.9-4.4l5.1,6.5c1,1.3,2.2,2.6,3.8,2.8c2.2,0.2,3.9-1.8,5.3-3.5c4.5-5.6,10.2-10.1,16.7-13
	c1-0.5,2-0.8,3-1l0.3-0.1c0.1,0,0.3-0.1,0.5-0.1c1.3-0.1,2.7,0,4,0.2c8.7,1.5,17.4,3.5,25.9,5.9c2.1,0.3,3.9,1.6,4.8,3.4
	c2.4,3.6,4.7,7.2,7.1,10.8c2.1,3.1,4.1,7,7.2,9.2c6.7-2.7,12.9-6.2,18.7-10.5c0.8-0.6,1.8-1.3,2.8-0.9c0.3,0.1,0.6,0.3,0.8,0.6
	C216.2,135.4,218.2,137.5,217.1,140.9z"/>
<path class="st7" d="M266.8,116.8c-0.9,0.8-2,1.3-3.2,1.5c-1.1,0-2.2-0.1-3.1-0.6l-15.3-5.1c-2.4,1.9-2.9,5.2-1.3,7.8
	c1.3,1.8,3.5,2.6,5.6,3.4l10.5,3.8c2.1,0.8,4.2,1.4,6.4,1.7c3.1,0.2,6.1-0.8,9-1.8c3.1-1,6.6-2.3,8-5.3c1.5-2.9,0.4-6.8,0.9-10.3
	c0.3-2.2,1.3-4.4,1.2-6.6c-0.1-1.9-1.6-4.8-3.9-4.4c-2,0.3-3.3,3.8-4.3,5.2C274.4,110.2,270.9,113.8,266.8,116.8z"/>
<path class="st5" d="M243.3,111.8c-0.2-0.4-0.4-0.8-0.7-1.1c-0.3-0.3-0.8-0.4-1.2-0.3c-0.4,0.3-0.6,0.7-0.6,1.2c0,0.2,0,0.3-0.1,0.5
	c-0.1,0.1-0.3,0.1-0.5,0.1c-1.7-0.3-3.5-0.6-5.2-0.8c-0.1,0-0.3,0-0.4,0c-0.6,0.2-0.9,0.8-0.7,1.5c0.2,0.6,0.5,1.1,0.9,1.6
	c0.9,1.5,1.2,3.4,2.7,4.4c0.9,0.5,1.9,0.7,2.9,0.6c1-0.1,2-0.2,3-0.2c0.7,0.1,1.4,0.1,2-0.2c0.5-0.4,0.7-0.9,0.7-1.5
	c-0.1-0.9-0.4-1.8-1-2.5C244.4,113.9,243.8,112.9,243.3,111.8z"/>
<path class="st5" d="M285.9,226.7c-5.8-1.3-4.7,7-6.2,10c-1,1.6-2.2,2.9-3.6,4.1c-1.3,1.3-2.6,2.9-2.6,4.7c0,0.4,0,0.7,0.2,1
	c0.3,0.4,0.7,0.6,1.2,0.7c3.3,1,6.9,0.6,10-1c1.4-0.7,2.6-1.8,3.4-3.2c0.6-1.5,0.9-3.1,0.9-4.7C289.2,234.9,290.7,227.7,285.9,226.7
	z"/>
<path class="st6" d="M280.7,243.7c0,0-16.6,0.7-9.6,5.9c7,5.2,17.6-1.3,18.6-2.5c1-1.2,0.2-3.2,0.2-3.2L280.7,243.7z"/>
<path class="st7" d="M289,246c-1.5,1.8-9.3,4.2-12.8,4c-3.5-0.2-6.6-1.9-6.2-4.1c0.3-2.2,6.4-7.4,7.6-7.4c1.1,0,2.1,2.7,4.4,3.2
	c2.1,0.3,4.2-0.4,5.6-2.1c0.4-0.6,1.2-0.8,1.9-0.5C290.3,240.3,290.5,244.2,289,246z"/>
<path class="st5" d="M305.9,229.9c-5.8-1.4-4.7,6.9-6.2,10c-1,1.6-2.2,3-3.6,4.2c-1.3,1.3-2.6,2.9-2.6,4.7c0,0.4,0,0.7,0.2,1
	c0.3,0.4,0.7,0.6,1.2,0.7c3.3,1,6.9,0.6,10-1c1.4-0.7,2.6-1.8,3.4-3.2c0.6-1.5,0.9-3.1,0.9-4.7C309.2,238.1,310.8,230.9,305.9,229.9
	z"/>
<path class="st6" d="M300.7,246.9c0,0-16.6,0.7-9.6,5.9c7,5.2,17.6-1.3,18.6-2.5s0.2-3.2,0.2-3.2L300.7,246.9z"/>
<path class="st7" d="M309,249.2c-1.5,1.8-9.3,4.2-12.8,4c-3.5-0.2-6.6-1.9-6.2-4.1s6.4-7.4,7.6-7.4c1.1,0,2.1,2.7,4.4,3.2
	c2.1,0.3,4.2-0.4,5.6-2.1c0.4-0.6,1.2-0.8,1.9-0.5C310.3,243.5,310.5,247.4,309,249.2z"/>
<path class="st8" d="M290.8,154.5l7.8,82.2l11.3-1.4c4.4-20.1,3.4-80.1,3.4-80.1L290.8,154.5z"/>
<path class="st8" d="M298.7,152.3l-7.8,82.2l-11.3-1.4c-6.4-52-1.1-84.4-1.1-84.4L298.7,152.3z"/>
<path class="st7" d="M279.4,122.5c-0.1-1.5-0.5-3-0.7-4.5c-0.4-3.1-0.3-6.2,0.2-9.3c0.5-3.3,1.5-6.5,2.9-9.5c1.3-2.6,3.6-3.7,6.3-5
	c2.2-1.2,4.6-2,7.1-2.4c1.8-0.2,3.5-0.1,5.2,0.3c5.3,1,12.3,3.8,15.9,7.9c2.7,3.1,3.1,7.6,3.1,11.8c0.1,5.7,0,11.5-0.4,17.2
	c0,0.8-0.1,1.7-0.2,2.5c-0.5,6.3-1,12.8-2.8,18.9c-0.6,1.9-1.2,3.8-2.9,4.8c-4.1,2.4-10.5,1.1-15,0.5c-6-0.9-12.1-1.7-17.3-4.6
	c-1.1-0.5-2-1.3-2.5-2.4c-0.5-1.3,0.1-2.7,0.5-4c1.8-5.9,0.4-12,0.4-18c0-1.1,0.1-2.2,0.1-3.3C279.4,123.1,279.4,122.8,279.4,122.5z
	"/>
<path class="st9" d="M296.1,150.1c0-0.6,0.1-1.3,0.4-1.8c0.7-0.8,2-0.7,3-0.4l6.7,1.7c2.5,0.6,6.4,3.1,7.1,5.6
	c2.6-1.8,3.2-4.8,3.7-7.9c0.5-3.1,0.5-9.2,1-12.3c-3.3,2.4-7.2,3.7-11.2,3.8c-3.8,0.1-8.6,0-10-4.1c-1.6-4.8-2.1-9.8-3.2-14.8
	c0-0.4-0.3-0.8-0.7-0.8c-0.1,0-0.1,0-0.2,0l-14.5,0.2c-0.2,0-0.5,0-0.7,0.1c-0.4,0.3-0.4,0.9-0.3,1.3c0.5,3.3,2.2,6.3,4.6,8.5
	c1.2,1,1.9,1.7,2.2,3.2c0.3,1.8,0.2,3.7,0.4,5.6c0.3,3.9,1.2,7.7,2.5,11.3C289.1,154.5,295.7,158.5,296.1,150.1z"/>
<polygon class="st6" points="292.1,154.3 270.6,154.3 267.9,120.9 289.4,120.9 "/>
<path class="st5" d="M290.9,83.5c0-1.6,0.1-3.2,0.3-4.7c0.1-1.4,0.4-2.7,0.6-4.1c0-0.8,0.4-1.5,1-2.1c2.1-1.3,4.6-2,7-1.9
	c3.1-0.5,6,1.6,6.5,4.7c0,0.3,0.1,0.6,0.1,0.9c0.4,3.5-0.5,6.9-1,10.3c-0.4,2.7-0.5,5.4-0.4,8c-1.3,0.9-2.8,1.4-4.3,1.5
	c-0.7,0-1.4-0.1-2.1-0.4c-0.4-0.1-0.7-0.3-1-0.6c-0.1-0.3-0.1-0.6-0.1-0.9c0-0.3,0.1-0.6,0.1-0.8l0,0c0.1-1.6,0.1-3.2-0.1-4.7
	c0-0.1,0-0.3-0.1-0.4c-0.1,0-0.2,0-0.3,0h-0.4c-0.8,0.1-1.6,0.1-2.3,0c-0.9-0.1-1.8-0.5-2.5-1.2C291,86.1,290.7,84.8,290.9,83.5z"/>
<path class="st19" d="M294,73.4c-0.5,0.2-1.2,0.2-1.7,0c-0.6-0.3-1-0.8-1.4-1.3c-1.3-2-0.8-4.7,1.2-6.1c1.5-1,3.3-1.5,5.1-1.1
	c0.5-0.3,1-0.5,1.5-0.6c2.1-0.6,4.4-0.8,6.5-0.4c1.2,0.4,2.4,0.9,3.4,1.7c1,0.7,1.8,1.5,2.5,2.5c0.6,1.3,1,2.7,1.2,4.1
	c0.3,1.5,0.5,3.1,0.5,4.6c0,0.7-0.1,1.4-0.4,2c-0.3,0.7-0.8,1.3-1.3,1.9c-0.8,0.8-1.7,1.5-2.7,2.1c-0.7,0.4-1.5,0.8-1.7,1.6
	c-0.1,0.4-0.1,0.7-0.1,1.1c0,0.5-0.3,1-0.6,1.4c-0.2,0.3-0.7,0.9-1,1c-0.4,0.1-0.7-0.3-0.8-0.7c-0.4-1.6-0.3-3.2,0.3-4.7
	c0.5-0.7,0.7-1.5,0.8-2.4c-0.1-0.8-1.2-1.5-1.8-1c-0.5,0.5-0.6,1.7-1.3,1.5c0.8-2.4-0.2-5.4-2.5-6.4c-1.2-0.4-2.5-0.6-3.8-0.5
	C295.4,73.5,294.7,73.4,294,73.4L294,73.4z"/>
<path class="st20" d="M296.5,88.3c1.8-0.3,3.6-0.9,5.3-1.6c0.2,5.5-4.4,6.7-4.4,6.7l0,0c0.1-1.6,0.1-3.2-0.1-4.7
	c0-0.1,0-0.3-0.1-0.4c-0.1,0-0.2,0-0.3,0L296.5,88.3L296.5,88.3z"/>
<path class="st7" d="M323.2,119.7l2.6,11.2c0.3,0.9,0.4,1.9,0.3,2.9c-0.2,1.8-1.4,3.3-2.6,4.7c-1.5,1.9-3.3,3.6-5.4,4.8
	c-1.5,0.6-3,1.1-4.6,1.2c-4.2,0.6-8.4,0.9-12.7,0.7c-0.3,0-0.7-0.1-1-0.2c-0.3-0.2-0.6-0.5-0.7-0.8c-1.5-2.2-2.8-4.6-3.8-7.1
	c3.4-2.3,7.1-4,11-5.2c0.8-0.1,1.5-0.5,2.1-1c0.4-0.5,0.7-1.1,0.8-1.7c1.7-7.2-2.2-15.2,0.9-21.9c1.8-3.8,5.5-7.9,8.2-2.8
	C320.9,109.2,322,114.6,323.2,119.7z"/>
<path class="st5" d="M292.4,137.2c-0.5-0.3-1-0.7-1.5-0.9c-0.5-0.3-1.2-0.2-1.7,0.1c-0.2,0.2-0.4,0.4-0.7,0.5c-0.2,0-0.4,0-0.6,0
	l-3.4-0.3c-0.5-0.1-1.1,0-1.6,0.3c-0.4,0.5-0.2,1.3,0.1,1.9c0.9,1.8,1.9,3.5,2.9,5.2c0.2,0.3,0.4,0.7,0.7,0.9
	c0.4,0.3,0.8,0.5,1.3,0.6c1.8,0.4,3.6,0.3,5.3-0.2c1.7-0.6,3.3-1.4,4.7-2.6c0.2-0.1,0.4-0.3,0.5-0.5c0.1-0.3,0.2-0.5,0.2-0.8
	c0.2-1.3-0.3-3.5-2-3.4C295.4,138.3,293.8,138,292.4,137.2z"/>
<path class="st17" d="M76.3,230.6c0.1-0.1,0.2-0.2,0.3-0.3c0.3-0.1,0.6,0.2,0.7,0.4c1.8,2.1,4.4,3.1,7,4c0.2,0.1,0.3,0.1,0.5,0
	c0.1-0.1,0.1-0.2,0.2-0.3c0.2-0.3,0.5-0.4,0.8-0.2c0.3,0.1,0.5,0.3,0.7,0.6c1,0.9,2.5,1.3,3.6,2.2c0.3,0.2,0.5,0.5,0.6,0.8
	c0.1,0.4,0,0.8-0.3,1c-0.3,0.3-0.6,0.5-1,0.5c-0.7,0.1-1.4,0.2-2.1,0.1c-3.5-0.3-7.1-0.6-10.6-1.1c-0.3,0-0.5-0.1-0.8-0.2
	c-0.6-0.4-0.8-1.1-0.7-1.8c0-0.9,0.1-1.8,0.3-2.7C75.5,232.4,75.8,231.4,76.3,230.6z"/>
<path class="st17" d="M66.3,237c0.4,0.2,0.9,0.4,1.3,0.5c0.8,0.2,1.6,0.2,2.5,0.1c0.8-0.2,1.5-0.8,1.7-1.6c0-0.2,0.2-0.6,0.4-0.5
	c0,0,0.1,0.1,0.1,0.1c0.6,1.1,0.9,2.3,0.9,3.5c0.1,0.7,0.1,1.3-0.2,2c-0.4,0.7-1,1.2-1.8,1.3c-0.8,0.1-1.5,0.1-2.3,0
	c-0.7-0.1-1.3-0.2-1.9-0.4c-0.3,0-0.6-0.2-0.8-0.3c-0.2-0.2-0.3-0.4-0.4-0.7c-0.5-1.2-0.7-2.6-0.6-3.9c0-0.3,0.1-0.6,0.1-0.8
	c0-0.1,0.1-0.7,0.3-0.6c0.2,0.1,0.1,0.1,0.1,0.3c0,0.1,0,0.3,0.1,0.4C65.9,236.6,66.1,236.8,66.3,237z"/>
<path class="st10" d="M179.3,61.5c-0.2-0.8,0-1.6,0.4-2.2c0.3-0.4,0.8-0.7,1.3-0.8c0.5-0.2,1-0.3,1.6-0.4c0.3,0,0.5-0.1,0.8-0.2
	c0.2-0.2,0.4-0.4,0.5-0.6c0.8-0.9,2-1.3,3.2-1.2c1.2,0,2.3,0.3,3.5,0.4c1.2,0.1,2.6-0.2,3.7,0.5c0.8,0.6,1.4,1.5,1.6,2.5
	c0.4-0.1,0.8,0,1.2,0.3c0.6,0.6,0,1.8,0.6,2.5c0.3,0.3,0.7,0.5,1,0.8c0.2,0.3,0.2,0.7,0.2,1.1c0,0.4-0.1,0.8-0.2,1.2
	c-0.3,1.1-1,2.1-1.4,3.2c-0.2,0.6-0.2,1.2-0.4,1.8c-0.4,1.3-1,2.5-1.9,3.6c0.6-2.7,0.7-5.5,0.2-8.2c0-0.3-0.1-0.5-0.4-0.6
	c-0.2,0-0.3,0-0.5,0.1c-2.7,1.1-5.7,1.2-8.6,0.3c-0.8-0.4-1.7-0.5-2.5-0.4c-0.3,0.1-0.7,0.2-1,0.4c-0.4,0.1-0.7,0.1-1.1,0
	c-0.1,0.2-0.1,0.3-0.1,0.5c-0.7-0.2-0.6-1.1-0.8-1.7C179.7,63.5,179.5,62.5,179.3,61.5z"/>
<path class="st5" d="M197,71.3c0.1,0.1,0.1,0.2,0.1,0.3c0.1,0.7,0,1.4-0.4,2.1c-0.4,0.6-0.9,1.1-1.5,1.4c-0.3,0.2-0.7,0.2-1.1,0.1
	c-0.4-0.2-0.6-0.6-0.6-1.1c-0.2-0.9,0-1.8,0.6-2.5c0.5-0.5,1.1-0.7,1.8-0.7C196.3,70.8,196.7,71,197,71.3z"/>
<path class="st5" d="M186.8,81c0.1,0.4-0.3,0.8-0.3,1.2s0,0.9,0,1.4c0,0.6-0.2,1.1-0.6,1.6c-0.4,0.4-0.9,0.7-1.5,0.8
	c-1.2,0.4-2.4,0.7-3.6,0.7c-0.5,0-1-0.1-1.5-0.2c-0.8-0.1-2.9-0.1-3.1-1.2c0-0.6,0.2-1.2,0.5-1.7c0.1-0.3,0.2-0.6,0.3-0.9
	c0.1-0.3,0.2-0.7,0.3-1.1c0.4-1.8,0.7-3.7,2.1-4.9c0.3-0.3,0.9-0.5,1.3-0.2c0.3,0.3,0.2,0.9,0.6,0.9c0.1,0,0.3,0,0.4-0.1
	c1.4-0.6,2.9-0.9,4.4-0.8c0.6,0,1.1,0.4,1.4,0.9c0.4,1-0.9,2.1-0.6,3.1C186.8,80.6,186.8,80.8,186.8,81z"/>
<path class="st7" d="M183.8,120.4c-0.3-0.3-0.6-0.5-0.9-0.7c0.2,3.8,0.8,7.8,3.2,10.8c0.6,0.7,1.2,1.4,1.7,2.2c1,1.7,1.1,4,2.4,5.5
	c1.2,1.1,2.6,1.8,4.2,2.1c1.4,0.5,2.9,0.4,4.2-0.2c1.1-0.8,1.8-1.9,2.2-3.2c0.9-2.1,2.5-5.2,1.2-7.5c-1-1.6-4-2.9-5.8-2.9
	c-2.5-0.6-5-1.5-7.4-2.6c-1.2-0.4-2.3-1-3.3-1.8C184.9,121.6,184.4,121,183.8,120.4z"/>
<path class="st9" d="M129.5,136.1c-0.7,2.3-1,4.7-0.9,7.2c0,0.4,0,0.7-0.1,1.1c-0.1-0.3-0.3-0.4-0.4-0.4c-3.6,1-11.5,3.1-15.2,3.7
	c-0.5,0.1-1.1,0.2-1.6,0.1c-0.6-0.1-1.1-0.4-1.5-0.8c-4.6-3.4-7.2-8.4-8.8-13.7c0.1-0.9,0.3-1.8,0.6-2.7c2.2,1.2,3.3,3.6,4.7,5.7
	c1.3,2,2.9,3.8,4.8,5.4c0.4,0.3,0.8,0.6,1.3,0.8c0.6,0.1,1.2,0.1,1.7-0.1C119.5,141.4,125.4,140.1,129.5,136.1z"/>
<path class="st9" d="M210,149.7c-3.2,3.1-6.6,6-10.2,8.8c-2.5,2-5.2,3.9-8.4,4.5c-1.3,0.3-2.6,0.2-3.8-0.2c-1-0.5-1.9-1.2-2.6-2.1
	c-0.9-0.9-11.4-12.9-11.5-12.9c-0.6,0.3-1,0.8-1.3,1.5c-1.5,3.1-2.5,6.5-2.8,10c-0.1,1.5-0.1,3.1,0,4.7c0.4,5.3,2.3,10.7,0.4,15.6
	c-0.4,1.1-1,2-1.8,2.8c-0.8,0.7-1.7,1.2-2.6,1.5c-2.1,0.8-4.2,1.5-6.3,2.1c-1,0.3-2.1,0.4-3.2,0.2c-0.6-0.1-2.2-1.2-2.6-1.2
	c3.2-0.5,5.8-2.7,6.9-5.8c0.7-2.4,0.4-4.9,0.4-7.4c0.1-2.9,0.4-5.7,1-8.6l2.2-12c0.7-4.1,2.2-9.9,6.5-11.8c0.9-0.4,1.8,0.2,2.5,0.8
	c4.9,3.9,10,7.8,13.5,13c1,1.4,2,3.1,3.6,3.7c1.6,0.7,3.7,0.1,5.5-0.6c2.6-1.1,5.2-2.3,7.6-3.7c1.8-1,4.3-3.4,6.6-3.1
	C209.8,149.7,209.9,149.7,210,149.7z"/>
</svg>
